<svg width="436" height="285" xmlns="http://www.w3.org/2000/svg" xmlns:xlink="http://www.w3.org/1999/xlink" xml:space="preserve" overflow="hidden"><g transform="translate(-462 -572)"><g><path d="M527.588 645.48C562.213 626.917 710.605 575.351 742.756 578.651 774.908 581.951 699.063 643.418 720.498 665.282 741.932 687.146 845.394 686.321 871.363 709.835 897.331 733.349 904.751 783.264 876.309 806.366 847.867 829.468 734.1 855.044 700.712 848.444 667.324 841.843 699.476 782.027 675.98 766.763 652.485 751.5 593.952 764.701 559.74 756.863 525.527 749.025 474.827 730.874 470.705 719.735 466.583 708.597 525.939 701.997 535.008 690.033 544.076 678.07 492.963 664.044 527.588 645.48Z" stroke="#000000" stroke-width="6.875" stroke-linecap="butt" stroke-linejoin="miter" stroke-miterlimit="8" stroke-opacity="1" fill="#FFFFFF" fill-rule="evenodd" fill-opacity="1"/><path d="M605.5 686.5C596.111 686.5 588.5 679.561 588.5 671 588.5 662.44 596.111 655.5 605.5 655.5 614.889 655.5 622.5 662.44 622.5 671 622.5 679.561 614.889 686.5 605.5 686.5Z" stroke="#0070C0" stroke-width="6.875" stroke-linecap="butt" stroke-linejoin="miter" stroke-miterlimit="8" stroke-opacity="1" fill="#0070C0" fill-rule="evenodd" fill-opacity="1"/><path d="M670.5 698.5C661.111 698.5 653.5 691.561 653.5 683 653.5 674.44 661.111 667.5 670.5 667.5 679.889 667.5 687.5 674.44 687.5 683 687.5 691.561 679.889 698.5 670.5 698.5Z" stroke="#0070C0" stroke-width="6.875" stroke-linecap="butt" stroke-linejoin="miter" stroke-miterlimit="8" stroke-opacity="1" fill="#0070C0" fill-rule="evenodd" fill-opacity="1"/><path d="M605.5 741.5C596.111 741.5 588.5 734.561 588.5 726 588.5 717.44 596.111 710.5 605.5 710.5 614.889 710.5 622.5 717.44 622.5 726 622.5 734.561 614.889 741.5 605.5 741.5Z" stroke="#0070C0" stroke-width="6.875" stroke-linecap="butt" stroke-linejoin="miter" stroke-miterlimit="8" stroke-opacity="1" fill="#0070C0" fill-rule="evenodd" fill-opacity="1"/><path d="M792.5 757.5C783.111 757.5 775.5 750.56 775.5 742 775.5 733.439 783.111 726.5 792.5 726.5 801.889 726.5 809.5 733.439 809.5 742 809.5 750.56 801.889 757.5 792.5 757.5Z" stroke="#0070C0" stroke-width="6.875" stroke-linecap="butt" stroke-linejoin="miter" stroke-miterlimit="8" stroke-opacity="1" fill="#0070C0" fill-rule="evenodd" fill-opacity="1"/><path d="M743.5 797.5C734.111 797.5 726.5 790.561 726.5 782 726.5 773.44 734.111 766.5 743.5 766.5 752.888 766.5 760.5 773.44 760.5 782 760.5 790.561 752.888 797.5 743.5 797.5Z" stroke="#00B050" stroke-width="6.875" stroke-linecap="butt" stroke-linejoin="miter" stroke-miterlimit="8" stroke-opacity="1" fill="#00B050" fill-rule="evenodd" fill-opacity="1"/><path d="M673 653.5C663.335 653.5 655.5 646.56 655.5 638 655.5 629.44 663.335 622.5 673 622.5 682.665 622.5 690.5 629.44 690.5 638 690.5 646.56 682.665 653.5 673 653.5Z" stroke="#00B050" stroke-width="6.875" stroke-linecap="butt" stroke-linejoin="miter" stroke-miterlimit="8" stroke-opacity="1" fill="#00B050" fill-rule="evenodd" fill-opacity="1"/><path d="M707.5 743.5C698.111 743.5 690.5 736.337 690.5 727.5 690.5 718.664 698.111 711.5 707.5 711.5 716.889 711.5 724.5 718.664 724.5 727.5 724.5 736.337 716.889 743.5 707.5 743.5Z" stroke="#00B050" stroke-width="6.875" stroke-linecap="butt" stroke-linejoin="miter" stroke-miterlimit="8" stroke-opacity="1" fill="#00B050" fill-rule="evenodd" fill-opacity="1"/></g></g></svg>