<svg version="1.1" id="Layer_1" xmlns="http://www.w3.org/2000/svg" xmlns:xlink="http://www.w3.org/1999/xlink" x="0px" y="0px"
	 width="100%" viewBox="0 0 336 336" enable-background="new 0 0 336 336" xml:space="preserve">
<path fill="#000000" opacity="1.000000" stroke="none" 
	d="
M337.000000,137.531342 
	C334.478882,133.953140 334.447693,129.155991 333.040802,124.763382 
	C311.941315,58.886841 267.627014,18.216591 199.757858,5.373648 
	C112.923759,-11.058053 26.689095,44.942787 6.883832,133.434082 
	C-6.064337,191.287399 8.844890,242.455276 48.401398,286.501068 
	C48.943909,287.105133 49.625874,287.584015 50.602989,288.435089 
	C62.824535,274.305145 80.857040,276.379852 96.515846,271.840027 
	C106.595276,268.917816 116.861038,266.705048 126.079132,261.405701 
	C128.006638,260.297607 129.748856,259.358887 131.810272,261.616241 
	C132.884247,262.792267 135.001068,262.687500 136.459229,261.694397 
	C138.316895,260.429260 137.303940,258.887115 136.648697,257.284760 
	C135.278702,253.934464 135.647812,250.330917 136.071350,246.910461 
	C137.529922,235.130951 135.750809,223.244034 137.442581,211.488831 
	C137.677063,209.859512 137.120560,208.497238 135.840576,207.516632 
	C130.391846,203.342224 125.748108,198.360428 121.367378,192.655563 
	C116.236580,196.296341 113.708580,193.644302 111.157028,189.304230 
	C103.199310,175.768494 95.679352,162.077362 92.186287,146.585861 
	C90.440987,138.845551 89.941483,131.097610 92.797287,123.470856 
	C94.773773,118.192436 97.619324,113.448875 102.804222,110.842468 
	C105.905304,109.283577 106.997261,106.853828 107.586357,103.796181 
	C112.490250,78.342819 130.815414,63.045441 156.546661,62.586838 
	C165.621689,62.425095 174.603180,62.944916 183.098053,66.138191 
	C190.318268,68.852303 196.441299,67.570534 202.221451,62.965435 
	C204.173767,61.410019 206.159821,59.886509 208.009064,58.214199 
	C212.723099,53.951241 215.786682,54.098583 217.573242,59.989380 
	C219.478210,66.270569 223.146423,67.182007 228.703720,66.666351 
	C235.629822,66.023697 242.663406,66.575279 249.365982,63.972527 
	C252.363663,62.808464 254.064957,64.105476 254.349838,67.450287 
	C255.963852,86.399155 252.892746,103.662720 237.041306,116.421776 
	C236.106949,117.173866 234.955124,118.036858 235.361481,119.255821 
	C237.289902,125.040573 237.666672,131.598587 242.678711,135.949142 
	C248.853317,141.308838 251.467560,151.310730 248.489929,159.260574 
	C245.375778,167.574905 239.637650,171.667725 231.589539,171.315079 
	C224.606522,171.009094 218.982910,166.307251 216.396759,158.176682 
	C215.413483,155.085327 214.398407,152.259308 210.570572,152.709427 
	C207.105179,153.116959 204.316895,154.390045 204.026001,158.806152 
	C203.783844,162.482162 202.114670,165.928085 199.679489,168.746048 
	C197.017792,171.826111 197.516739,174.827896 199.319092,177.933960 
	C200.237350,179.516403 201.326599,181.000626 202.356232,182.517242 
	C207.188004,189.634308 209.177032,189.768295 215.226212,183.714310 
	C216.807312,182.131958 216.177322,180.644058 215.582581,179.148270 
	C213.552185,174.041672 211.394760,168.985687 209.314362,163.898727 
	C208.694778,162.383713 207.619614,160.497467 209.683502,159.532455 
	C211.865479,158.512253 212.516571,160.712723 213.124252,162.149734 
	C215.393951,167.516968 217.475815,172.963501 219.732986,178.336212 
	C221.725754,183.079590 220.413651,186.731750 215.741516,188.465622 
	C210.335770,190.471756 210.639236,194.158661 211.724854,198.517685 
	C212.566284,201.896133 214.941452,204.295990 216.778992,207.053986 
	C219.127060,210.578247 222.496216,209.527969 225.801498,209.436737 
	C227.722229,209.383728 229.959702,209.678421 231.033203,211.725143 
	C232.161301,213.875961 230.671555,215.484390 229.554794,217.153595 
	C223.049805,226.876495 213.133514,228.916916 202.456879,229.179993 
	C195.680222,229.346985 195.552475,229.412659 195.289413,236.230850 
	C195.250854,237.230072 195.280212,238.239380 195.147354,239.226395 
	C193.154556,254.032425 200.175186,263.441833 212.898224,269.873444 
	C226.598465,276.799011 241.334076,280.228149 256.180817,283.178497 
	C265.972321,285.124268 273.135620,289.708893 276.648529,299.297699 
	C276.815277,299.752930 277.171021,300.138916 277.620148,300.840515 
	C284.538544,296.260834 289.917084,290.622559 295.132507,284.863739 
	C315.580170,262.285736 329.266846,236.183350 335.714661,206.351013 
	C335.851074,205.719971 336.207703,205.136520 336.730774,204.265427 
	C337.000000,248.260315 337.000000,292.520630 337.000000,337.000000 
	C292.979340,337.000000 248.958328,337.000000 204.695419,336.687775 
	C205.231552,336.121094 205.994247,335.796570 206.789856,335.622437 
	C229.881943,330.568054 250.983765,321.131653 270.102234,307.188660 
	C273.015656,305.063934 273.764679,303.160950 272.305450,299.728790 
	C269.172974,292.361053 263.412354,288.908936 255.966080,287.315826 
	C239.698624,283.835449 223.259552,280.765961 208.611298,272.292328 
	C205.510239,270.498474 203.732300,270.579529 201.613541,273.478241 
	C199.821121,275.930481 196.975311,277.218628 194.172073,278.354523 
	C178.924637,284.533020 163.159607,285.569061 147.123627,282.657196 
	C137.743179,280.953888 128.438202,278.752960 122.134109,270.546417 
	C121.001495,269.072021 119.613342,269.279144 118.091942,269.826752 
	C103.641335,275.028046 88.571396,277.674683 73.574471,280.639404 
	C67.322525,281.875366 61.289227,283.642853 56.633968,288.475281 
	C54.306767,290.891052 54.239601,292.656982 56.909142,295.037750 
	C78.697601,314.469147 103.476669,328.175812 131.986420,334.966949 
	C134.001678,335.446960 136.410339,335.132416 138.000000,337.000000 
	C92.354454,337.000000 46.708904,337.000000 1.031679,337.000000 
	C1.031679,225.072922 1.031679,113.145836 1.031679,1.109375 
	C112.999947,1.109375 224.999954,1.109375 337.000000,1.109375 
	C337.000000,46.437981 337.000000,91.750328 337.000000,137.531342 
M216.148254,145.859848 
	C218.701111,137.808563 224.387390,133.225250 232.720078,131.843857 
	C231.916550,130.342758 231.061508,130.276199 230.247543,130.138992 
	C225.330978,129.310333 221.069412,130.814362 217.180069,133.748352 
	C216.141891,134.531525 214.873184,135.638031 213.696060,134.220703 
	C212.344940,132.593872 213.836853,131.444885 214.906525,130.490875 
	C216.014755,129.502487 217.256378,128.599701 218.575516,127.925095 
	C221.298691,126.532471 224.112167,125.316422 226.869186,124.036697 
	C226.133865,122.229691 224.935516,122.207748 223.766083,122.369888 
	C214.236908,123.691109 204.710938,125.036011 195.189056,126.408821 
	C194.004837,126.579552 192.486160,127.149979 192.814285,128.459091 
	C194.251694,134.193909 190.434311,132.600784 187.676956,132.223328 
	C178.016129,130.900864 172.558182,138.558044 165.419647,142.581604 
	C162.477402,144.239975 165.286163,147.624237 163.262634,149.697388 
	C165.473999,150.551239 166.993073,152.300659 169.149002,151.126129 
	C170.351425,149.368851 167.871826,148.013443 168.982407,145.990067 
	C171.079269,145.337265 172.822250,143.695511 174.520691,141.815689 
	C183.036758,132.390274 195.739777,134.044662 201.852890,145.261292 
	C204.278488,149.711914 211.837997,150.419693 216.148254,145.859848 
M225.954681,158.070984 
	C225.117050,150.772629 224.934433,150.621170 219.777573,153.223175 
	C220.082687,154.773773 220.227997,156.445450 220.746964,157.991699 
	C223.296677,165.588425 231.696289,169.445145 237.808395,165.905609 
	C246.317917,160.977768 248.473511,148.387543 241.787872,141.204163 
	C238.663589,137.847275 234.724579,135.373367 229.798874,136.978729 
	C225.590485,138.350311 222.400040,140.945602 221.445908,146.165787 
	C223.395157,145.745712 224.818542,145.389984 226.259933,145.136826 
	C232.469894,144.045990 237.714386,147.951645 238.081131,154.210083 
	C238.297668,157.905411 237.115356,161.336807 233.318527,162.712784 
	C229.821091,163.980255 227.733276,161.714279 225.954681,158.070984 
M192.967239,152.876175 
	C194.500351,156.483566 194.224167,159.970749 192.376022,163.406464 
	C191.674515,164.710571 190.784332,166.263901 192.643448,167.300613 
	C194.351868,168.253265 195.440903,166.893875 196.386688,165.743484 
	C200.465332,160.782547 200.842163,155.104355 198.999496,149.289886 
	C197.003372,142.991211 191.897995,139.689789 185.779968,140.225296 
	C180.888504,140.653442 176.999557,144.461456 176.061417,150.012222 
	C181.995804,147.959747 187.996948,145.428375 192.967239,152.876175 
M174.822708,279.323853 
	C183.732834,277.503448 193.092194,276.671997 199.121185,268.449738 
	C189.606201,273.610779 179.366135,276.745544 168.692993,276.953552 
	C154.644180,277.227295 140.156906,277.881622 128.885056,266.760071 
	C128.050293,265.936432 127.180611,265.643799 126.304375,266.568817 
	C125.443390,267.477783 125.843369,268.457062 126.506622,269.257507 
	C128.574997,271.753784 131.314255,273.322266 134.204071,274.668213 
	C146.924255,280.592621 160.452606,279.873596 174.822708,279.323853 
M130.578201,157.786972 
	C132.487930,160.536606 133.549255,164.276749 137.917343,164.190720 
	C139.963196,160.081100 138.769623,155.159866 135.002167,151.919312 
	C132.012299,149.347595 125.724167,148.884354 122.856262,151.006973 
	C121.615784,151.925095 121.271103,153.085876 121.875275,154.488220 
	C122.457008,155.838501 123.425682,156.713806 124.982536,156.263580 
	C126.882805,155.714035 128.576324,155.871841 130.578201,157.786972 
M181.651367,157.712540 
	C181.352783,156.387634 182.288559,154.667648 180.448212,153.819382 
	C178.535141,154.310928 176.662369,154.792130 174.691208,155.298599 
	C173.768280,158.711487 175.263336,161.469254 176.916534,164.136932 
	C177.846848,165.638153 179.308243,165.720245 180.850784,165.091080 
	C182.347641,164.480515 182.693344,163.398972 182.287567,161.889832 
	C181.990433,160.784775 181.867828,159.632797 181.651367,157.712540 
M163.055191,132.617081 
	C164.692963,134.346222 166.645752,134.155930 168.569290,133.353622 
	C169.860291,132.815125 170.735016,131.787292 170.548233,130.225861 
	C170.378082,128.803284 169.780060,127.405586 168.246109,127.401627 
	C165.258652,127.393913 161.811081,127.190331 163.055191,132.617081 
z"/>
<path fill="#000000" opacity="1.000000" stroke="none" 
	d="
M167.649567,291.938049 
	C170.701614,293.553436 172.128082,295.570648 170.006317,298.434265 
	C168.716904,300.174469 166.785065,300.868408 164.766907,299.631714 
	C162.617371,298.314484 162.193924,296.244751 163.199661,294.029877 
	C163.946808,292.384491 165.396469,291.636047 167.649567,291.938049 
z"/>
<path fill="#000000" opacity="1.000000" stroke="none" 
	d="
M167.624878,333.974792 
	C164.421112,334.208832 162.917358,332.812744 162.769745,330.050354 
	C162.659912,327.994873 163.732208,326.504608 165.657120,325.976105 
	C167.828720,325.379883 169.595978,326.322601 170.503220,328.353851 
	C171.689346,331.009491 170.384583,332.721344 167.624878,333.974792 
z"/>
<path fill="#000000" opacity="1.000000" stroke="none" 
	d="
M163.984467,315.900757 
	C162.228027,313.372162 162.219772,311.232025 164.457260,309.570190 
	C166.316406,308.189392 168.217789,308.668915 169.744751,310.264008 
	C171.135315,311.716644 171.479645,313.436432 170.177307,315.142090 
	C168.561523,317.258270 166.601761,317.907410 163.984467,315.900757 
z"/>
</svg>